<svg width="14" height="15" viewBox="0 0 14 15" fill="none" xmlns="http://www.w3.org/2000/svg">
<path d="M10.5 7.3125C10.5 7.14844 10.3359 6.98438 10.1719 6.98438H7.76562V4.57812C7.76562 4.41406 7.60156 4.25 7.4375 4.25H6.5625C6.37109 4.25 6.23438 4.41406 6.23438 4.57812V6.98438H3.82812C3.63672 6.98438 3.5 7.14844 3.5 7.3125V8.1875C3.5 8.37891 3.63672 8.51562 3.82812 8.51562H6.23438V10.9219C6.23438 11.1133 6.37109 11.25 6.5625 11.25H7.4375C7.60156 11.25 7.76562 11.1133 7.76562 10.9219V8.51562H10.1719C10.3359 8.51562 10.5 8.37891 10.5 8.1875V7.3125ZM13.7812 7.75C13.7812 4.00391 10.7461 0.96875 7 0.96875C3.25391 0.96875 0.21875 4.00391 0.21875 7.75C0.21875 11.4961 3.25391 14.5312 7 14.5312C10.7461 14.5312 13.7812 11.4961 13.7812 7.75ZM12.4688 7.75C12.4688 10.7852 10.0078 13.2188 7 13.2188C3.96484 13.2188 1.53125 10.7852 1.53125 7.75C1.53125 4.74219 3.96484 2.28125 7 2.28125C10.0078 2.28125 12.4688 4.74219 12.4688 7.75Z" fill="white"/>
</svg>
