<svg width="78" height="78" viewBox="0 0 78 78" fill="none" xmlns="http://www.w3.org/2000/svg">
<path d="M11.5 11.6562C19.1042 4.05208 28.2708 0.25 39 0.25C49.7292 0.25 58.8438 4.05208 66.3438 11.6562C73.9479 19.1562 77.75 28.2708 77.75 39C77.75 49.7292 73.9479 58.8958 66.3438 66.5C58.8438 74 49.7292 77.75 39 77.75C28.2708 77.75 19.1042 74 11.5 66.5C4 58.8958 0.25 49.7292 0.25 39C0.25 28.2708 4 19.1562 11.5 11.6562ZM16.8125 61.1875C22.9583 67.2292 30.3542 70.25 39 70.25C47.6458 70.25 54.9896 67.2292 61.0312 61.1875C67.1771 55.0417 70.25 47.6458 70.25 39C70.25 30.3542 67.1771 23.0104 61.0312 16.9688C54.9896 10.8229 47.6458 7.75 39 7.75C30.3542 7.75 22.9583 10.8229 16.8125 16.9688C10.7708 23.0104 7.75 30.3542 7.75 39C7.75 47.6458 10.7708 55.0417 16.8125 61.1875ZM52.125 47.9062C52.75 47.0729 53.5833 46.6042 54.625 46.5C55.6667 46.3958 56.5521 46.7083 57.2812 47.4375C58.1146 48.0625 58.5833 48.8958 58.6875 49.9375C58.7917 50.9792 58.5312 51.8646 57.9062 52.5938C53.0104 58.5312 46.7083 61.5 39 61.5C31.2917 61.5 24.9896 58.5312 20.0938 52.5938C19.4688 51.8646 19.2083 50.9792 19.3125 49.9375C19.4167 48.8958 19.8333 48.0625 20.5625 47.4375C21.3958 46.7083 22.3333 46.3958 23.375 46.5C24.4167 46.6042 25.25 47.0729 25.875 47.9062C29.3125 51.9688 33.6875 54 39 54C44.3125 54 48.6875 51.9688 52.125 47.9062ZM21.5 31.9688L20.0938 34.625C19.7812 35.25 19.3125 35.4583 18.6875 35.25C17.9583 35.0417 17.6458 34.5729 17.75 33.8438C17.9583 30.7188 18.9479 28.1146 20.7188 26.0312C22.5938 23.8438 24.5208 22.75 26.5 22.75C28.4792 22.75 30.3542 23.8438 32.125 26.0312C34 28.1146 35.0417 30.7188 35.25 33.8438C35.3542 34.5729 35.0417 35.0417 34.3125 35.25C33.6875 35.4583 33.2188 35.25 32.9062 34.625L31.5 31.9688C30.1458 29.6771 28.4792 28.5312 26.5 28.5312C24.5208 28.5312 22.8542 29.6771 21.5 31.9688ZM45.7188 26.0312C47.5938 23.8438 49.5208 22.75 51.5 22.75C53.4792 22.75 55.3542 23.8438 57.125 26.0312C59 28.1146 60.0417 30.7188 60.25 33.8438C60.3542 34.5729 60.0417 35.0417 59.3125 35.25C58.6875 35.4583 58.2188 35.25 57.9062 34.625L56.5 31.9688C55.1458 29.6771 53.4792 28.5312 51.5 28.5312C49.5208 28.5312 47.8542 29.6771 46.5 31.9688L45.0938 34.625C44.7812 35.25 44.3125 35.4583 43.6875 35.25C42.9583 35.0417 42.6458 34.5729 42.75 33.8438C42.9583 30.7188 43.9479 28.1146 45.7188 26.0312Z" fill="#757575"/>
</svg>
